# xmcd
#
# Track frame offsets: 
#        150
#        20957
#        37470
#        48845
#        63465
#        81220
#        95512
#        112882
#        135647
#        151557
#        171855
#        191477
#        205885
#        217487
#        233002
#        251912
#        268630
#        282715
#
# Disc length: 4149 seconds
#
# Revision: 2
# Processed by: cddbd v1.5.1PL2 Copyright (c) Steve Scherf et al.
# Submitted via: ExactAudioCopy v0.95b3
#
DISCID=13103312
DTITLE=Big Jay McNeely - People Will be People
DYEAR=1995
DGENRE=Blues
TTITLE0=People Will be People
TTITLE1=Livin' Just for You
TTITLE2=Insect Ball
TTITLE3=Time
TTITLE4=You are My Life
TTITLE5=Deacon's Hip Hop
TTITLE6=There is Something on Your Mind
TTITLE7=Big Fat Mama
TTITLE8=Richard's Blues
TTITLE9=NeverTrust Your Heart
TTITLE10=Blues ain't Nuthin'
TTITLE11=Full Moon
TTITLE12=Serengeti
TTITLE13=Without a Love
TTITLE14=Give Me Some of Your Love
TTITLE15=Country Boy
TTITLE16=Blow, Big Jay
TTITLE17=Summertime
EXTD=
EXTT0=
EXTT1=
EXTT2=
EXTT3=
EXTT4=
EXTT5=
EXTT6=
EXTT7=
EXTT8=
EXTT9=
EXTT10=
EXTT11=
EXTT12=
EXTT13=
EXTT14=
EXTT15=
EXTT16=
EXTT17=
PLAYORDER=
